<?xml version="1.0" standalone="no"?>
<!DOCTYPE svg PUBLIC "-//W3C//DTD SVG 20010904//EN"
 "http://www.w3.org/TR/2001/REC-SVG-20010904/DTD/svg10.dtd">
<svg version="1.0" xmlns="http://www.w3.org/2000/svg"
 width="512.000000pt" height="512.000000pt" viewBox="0 0 512.000000 512.000000"
 preserveAspectRatio="xMidYMid meet">
<metadata>
Created by potrace 1.14, written by Peter Selinger 2001-2017
</metadata>
<g transform="translate(0.000000,512.000000) scale(0.100000,-0.100000)"
fill="#000000" stroke="none">
<path d="M2404 5079 c-54 -22 -112 -46 -129 -53 -32 -15 -344 -147 -710 -301
-126 -53 -243 -103 -260 -110 -16 -7 -145 -61 -285 -120 -482 -202 -545 -229
-578 -248 -63 -37 -86 -129 -47 -194 19 -33 59 -60 135 -92 30 -13 80 -34 110
-48 30 -14 114 -51 185 -83 72 -32 155 -69 185 -83 30 -13 91 -40 135 -60 44
-19 105 -46 135 -60 74 -34 614 -275 670 -299 25 -11 65 -29 90 -40 25 -11
104 -46 175 -78 72 -32 159 -71 195 -87 114 -52 128 -56 171 -49 22 3 48 10
57 15 9 5 40 19 67 31 28 13 136 61 240 107 171 77 567 253 1115 498 107 48
222 99 255 114 33 15 127 56 209 91 161 70 209 106 220 162 19 101 -22 142
-226 227 -299 125 -933 393 -963 406 -16 7 -115 49 -220 93 -104 44 -305 129
-445 188 -314 132 -331 135 -486 73z m-842 -724 c76 -10 193 -69 231 -117 34
-43 46 -112 27 -158 -26 -63 -131 -132 -237 -156 -15 -3 -68 -7 -118 -9 -162
-5 -314 57 -361 146 -38 73 -25 137 41 198 95 88 235 120 417 96z m1103 1
c114 -18 214 -78 252 -150 19 -36 19 -110 0 -139 -62 -95 -177 -147 -335 -152
-198 -7 -357 69 -389 185 -35 126 86 228 312 263 28 4 112 1 160 -7z m1147
-11 c138 -35 230 -121 227 -212 -2 -92 -123 -187 -269 -212 -48 -8 -187 -7
-232 2 -92 17 -202 87 -234 148 -19 37 -18 92 2 132 66 128 301 195 506 142z"/>
<path d="M233 3810 c-28 -14 -48 -34 -61 -60 -18 -37 -18 -82 -17 -1356 l0
-1319 24 -53 c36 -81 96 -128 252 -196 74 -32 163 -72 199 -89 36 -16 204 -91
375 -167 171 -76 524 -233 785 -350 522 -234 540 -240 606 -193 68 49 63 -54
64 1430 0 1223 -1 1346 -16 1383 -20 49 -47 68 -199 134 -60 27 -135 60 -165
73 -30 14 -136 61 -235 105 -99 44 -205 91 -235 105 -30 14 -181 81 -335 150
-154 68 -298 133 -320 143 -333 151 -617 273 -645 277 -23 3 -49 -3 -77 -17z
m1112 -1458 c51 -35 89 -91 115 -168 29 -86 33 -107 33 -204 0 -133 -40 -240
-113 -302 -39 -34 -48 -38 -101 -40 -56 -2 -144 65 -176 134 -44 96 -55 144
-59 249 -3 99 7 150 43 232 27 60 87 122 127 130 39 9 91 -4 131 -31z"/>
<path d="M4780 3823 c-8 -3 -100 -44 -205 -91 -555 -246 -1117 -497 -1165
-519 -30 -14 -136 -61 -235 -105 -194 -86 -219 -97 -338 -152 -43 -20 -81 -36
-85 -36 -13 0 -62 -50 -76 -78 -12 -24 -15 -222 -15 -1362 0 -906 3 -1347 10
-1373 27 -100 121 -129 239 -75 30 14 111 50 180 81 69 30 150 66 180 80 30
14 120 54 200 90 80 35 165 74 190 85 25 11 106 47 180 80 74 33 165 74 203
91 37 17 69 31 72 31 2 0 43 18 90 40 47 22 88 40 90 40 2 0 39 16 82 36 126
58 191 87 322 145 145 63 206 112 242 191 l23 53 2 1315 c2 1282 1 1316 -18
1357 -28 60 -111 97 -168 76z m-400 -812 c178 -178 110 -631 -103 -690 -43
-12 -50 -12 -94 10 -92 47 -147 159 -152 313 -6 195 76 370 193 410 61 21 104
9 156 -43z m-871 -1449 c201 -161 124 -684 -105 -710 -58 -6 -96 11 -143 64
-122 139 -111 459 20 609 67 76 160 91 228 37z"/>
</g>
</svg>
